<svg width="60" height="60" fill="none" xmlns="http://www.w3.org/2000/svg"><path d="M37.749 3.263a10.838 10.838 0 00-15.503 0l-2.332 2.392-3.338-.04A10.838 10.838 0 005.611 16.578l.038 3.338-2.385 2.332a10.838 10.838 0 000 15.503l2.389 2.332-.042 3.338a10.838 10.838 0 0010.965 10.965l3.338-.038 2.332 2.385a10.837 10.837 0 0015.503 0l2.332-2.389 3.338.042a10.837 10.837 0 0010.965-10.965l-.038-3.338 2.386-2.332a10.837 10.837 0 000-15.503l-2.39-2.332.042-3.338A10.837 10.837 0 0043.419 5.614l-3.337.038-2.333-2.385v-.004zm1.076 22.44l-11.25 11.25a1.877 1.877 0 01-2.655 0l-5.625-5.625a1.876 1.876 0 012.655-2.655l4.298 4.301 9.922-9.926a1.877 1.877 0 112.655 2.655z" fill="#689F38"/></svg>