<svg width="18" height="16" fill="none" xmlns="http://www.w3.org/2000/svg"><path d="M7.367 10.277a.53.53 0 00.192.152.58.58 0 00.495 0 .53.53 0 00.192-.152l3.582-4.563c.064-.083 0-.198-.11-.198h-.798a.558.558 0 00-.44.207L7.806 9.13l-1.21-1.544a.56.56 0 00-.441-.208h-.798c-.11 0-.175.116-.11.199l2.119 2.7z" fill="#302621"/><path d="M14.967 1.75H2.45c-.301 0-.544.223-.544.5v11.5c0 .277.243.5.544.5h12.517c.301 0 .544-.223.544-.5V2.25c0-.277-.243-.5-.544-.5zm-.68 11.375H3.13V2.875h11.157v10.25z" fill="#302621"/></svg>