<svg width="281" height="31" fill="none" xmlns="http://www.w3.org/2000/svg"><path d="M38.807 29.76c.064 0 .096.095.096.286 0 .19-.032.286-.096.286-1.087 0-1.95-.016-2.59-.047l-3.55-.048-3.597.048c-.608.031-1.44.047-2.495.047-.096 0-.144-.095-.144-.286 0-.19.048-.286.144-.286 1.343 0 2.255-.159 2.734-.477.48-.318.72-.986.72-2.003l-.048-.81-1.007-19.507-9.882 23.035c-.064.128-.192.191-.384.191s-.32-.063-.384-.19L6.188 7.058l-.384 17.216c-.032 1.717.304 3.069 1.008 4.054.735.954 1.759 1.431 3.07 1.431.096 0 .144.095.144.286 0 .19-.048.286-.144.286-.864 0-1.535-.016-2.015-.047l-2.638-.048-3.022.048c-.512.031-1.2.047-2.063.047-.096 0-.144-.095-.144-.286 0-.19.048-.286.144-.286 1.311 0 2.35-.493 3.118-1.479.767-.985 1.167-2.32 1.2-4.006l.43-19.744-.047-.048c-.64-1.176-1.311-2.035-2.015-2.575-.671-.54-1.455-.811-2.35-.811-.096 0-.144-.095-.144-.286C.336.62.384.525.48.525l2.254.047C3.182.604 3.758.62 4.461.62L7.004.572C7.29.541 7.659.525 8.107.525c.416 0 .735.143.96.429.223.286.639.97 1.246 2.05l10.458 19.507 9.114-20.794c.192-.445.384-.747.576-.906.224-.191.511-.286.863-.286.288 0 .608.016.96.047.383.032.815.048 1.295.048l2.83-.048a29.066 29.066 0 011.919-.047c.096 0 .144.095.144.286 0 .19-.048.286-.144.286-1.503 0-2.59.302-3.262.906-.672.604-.976 1.542-.912 2.814l1.152 21.652c.064.986.175 1.701.335 2.146.192.446.512.748.96.907.48.159 1.215.238 2.206.238zm18.729 1.145c-2.974 0-5.629-.684-7.963-2.051a14.687 14.687 0 01-5.373-5.628c-1.247-2.384-1.87-4.976-1.87-7.774 0-3.275.83-6.073 2.494-8.394 1.663-2.352 3.79-4.117 6.38-5.293C53.826.588 56.496 0 59.214 0c3.039 0 5.71.715 8.012 2.146 2.302 1.4 4.061 3.26 5.276 5.58a15.39 15.39 0 011.871 7.392c0 2.894-.767 5.549-2.302 7.965-1.535 2.417-3.598 4.324-6.189 5.723-2.558 1.4-5.34 2.099-8.346 2.099zm1.583-1.193c1.79 0 3.39-.508 4.797-1.526 1.439-1.05 2.558-2.56 3.358-4.53.8-2.004 1.199-4.388 1.199-7.154 0-2.926-.448-5.533-1.343-7.822-.896-2.321-2.19-4.133-3.886-5.437-1.695-1.304-3.678-1.955-5.948-1.955-2.91 0-5.149 1.097-6.716 3.29-1.567 2.163-2.35 5.199-2.35 9.11 0 3.084.463 5.85 1.39 8.298.96 2.417 2.255 4.308 3.886 5.675 1.663 1.368 3.534 2.051 5.613 2.051zm33.225.811c-1.024 0-2.239-.048-3.646-.143a95.895 95.895 0 00-1.919-.095 58.321 58.321 0 00-2.494-.048l-3.55.048c-.64.031-1.503.047-2.59.047-.064 0-.096-.095-.096-.286 0-.19.032-.286.096-.286 1.023 0 1.775-.08 2.254-.239.48-.158.8-.46.96-.906.192-.476.288-1.192.288-2.146V4.388c0-.954-.096-1.654-.288-2.099-.16-.445-.48-.747-.96-.906-.447-.19-1.167-.286-2.158-.286-.096 0-.144-.095-.144-.286 0-.191.048-.286.144-.286l2.542.047c1.471.064 2.638.096 3.502.096 1.311 0 2.654-.048 4.03-.143C89.976.46 91.096.429 91.671.429c3.23 0 6.092.636 8.587 1.908 2.526 1.272 4.477 3.005 5.852 5.198 1.375 2.194 2.063 4.658 2.063 7.393 0 3.084-.72 5.818-2.159 8.203-1.407 2.353-3.326 4.18-5.756 5.484-2.399 1.272-5.037 1.908-7.915 1.908zm-.48-1.097c2.047 0 3.854-.509 5.42-1.526 1.568-1.05 2.783-2.591 3.646-4.626.896-2.035 1.343-4.467 1.343-7.297 0-2.703-.415-5.15-1.247-7.345-.831-2.225-2.014-3.974-3.55-5.246-1.534-1.272-3.31-1.908-5.324-1.908-1.983 0-3.342.191-4.078.573-.735.381-1.103 1.192-1.103 2.432v21.462c0 1.271.336 2.178 1.007 2.718.672.509 1.967.763 3.886.763zM137.919 6.63c0-1.718-.4-3.069-1.2-4.055-.767-.985-1.854-1.478-3.262-1.478-.063 0-.095-.095-.095-.286 0-.191.032-.286.095-.286l2.303.047c1.215.064 2.191.096 2.926.096.608 0 1.487-.032 2.638-.096l2.207-.047c.064 0 .096.095.096.286 0 .19-.032.286-.096.286-1.247 0-2.223.493-2.926 1.478-.704.986-1.055 2.337-1.055 4.054v13.259c0 2.225-.496 4.18-1.487 5.866-.992 1.685-2.399 2.989-4.222 3.91-1.791.89-3.869 1.336-6.236 1.336-2.366 0-4.461-.445-6.284-1.335-1.823-.89-3.262-2.178-4.317-3.863-1.023-1.717-1.535-3.72-1.535-6.01V4.388c0-.954-.096-1.654-.288-2.099-.16-.445-.48-.747-.959-.906-.448-.19-1.168-.286-2.159-.286-.096 0-.144-.095-.144-.286 0-.191.048-.286.144-.286l2.542.047a85.55 85.55 0 003.502.096c.96 0 2.175-.032 3.646-.096l2.446-.047c.096 0 .144.095.144.286 0 .19-.048.286-.144.286-.991 0-1.727.095-2.206.286-.448.19-.768.525-.96 1.002-.16.445-.24 1.144-.24 2.098v13.64c0 3.784.752 6.582 2.255 8.394 1.503 1.812 3.63 2.718 6.38 2.718 2.654 0 4.733-.794 6.236-2.384 1.503-1.622 2.255-3.927 2.255-6.916V6.63zm16.555 19.649c0 .826.064 1.43.192 1.812.128.35.368.588.72.715.383.127.991.19 1.822.19h1.631c2.495 0 4.653-.65 6.476-1.954 1.823-1.336 3.038-3.132 3.646-5.39 0-.063.064-.095.192-.095.064 0 .128.032.192.095.096.032.144.064.144.096-.288 3.147-.432 5.77-.432 7.869 0 .254-.064.445-.192.572-.096.096-.272.143-.528.143h-22.641c-.064 0-.096-.095-.096-.286 0-.19.032-.286.096-.286 1.023 0 1.759-.08 2.206-.239.48-.158.8-.46.96-.906.192-.476.288-1.192.288-2.146V4.388c0-.954-.096-1.654-.288-2.099-.16-.445-.48-.747-.96-.906-.479-.19-1.215-.286-2.206-.286-.064 0-.096-.095-.096-.286 0-.191.032-.286.096-.286l2.446.047c1.471.064 2.686.096 3.646.096.959 0 2.174-.032 3.646-.096l2.446-.047c.096 0 .144.095.144.286 0 .19-.048.286-.144.286-.991 0-1.727.095-2.207.286a1.438 1.438 0 00-.959.954c-.16.445-.24 1.145-.24 2.098v21.843zm31.56 4.244c-1.023 0-2.238-.048-3.645-.143a96.232 96.232 0 00-1.919-.095 58.329 58.329 0 00-2.494-.048l-3.55.048a56.27 56.27 0 01-2.591.047c-.064 0-.096-.095-.096-.286 0-.19.032-.286.096-.286 1.024 0 1.775-.08 2.255-.239.48-.158.799-.46.959-.906.192-.476.288-1.192.288-2.146V4.388c0-.954-.096-1.654-.288-2.099-.16-.445-.479-.747-.959-.906-.448-.19-1.167-.286-2.159-.286-.096 0-.144-.095-.144-.286 0-.191.048-.286.144-.286l2.543.047c1.471.064 2.638.096 3.502.096 1.311 0 2.654-.048 4.029-.143 1.663-.064 2.782-.096 3.358-.096 3.23 0 6.092.636 8.586 1.908 2.527 1.272 4.478 3.005 5.853 5.198 1.375 2.194 2.062 4.658 2.062 7.393 0 3.084-.719 5.818-2.158 8.203-1.407 2.353-3.326 4.18-5.757 5.484-2.398 1.272-5.036 1.908-7.915 1.908zm-.479-1.097c2.046 0 3.853-.509 5.42-1.526 1.567-1.05 2.783-2.591 3.646-4.626.895-2.035 1.343-4.467 1.343-7.297 0-2.703-.416-5.15-1.247-7.345-.832-2.225-2.015-3.974-3.55-5.246-1.535-1.272-3.31-1.908-5.324-1.908-1.983 0-3.342.191-4.078.573-.735.381-1.103 1.192-1.103 2.432v21.462c0 1.271.336 2.178 1.007 2.718.672.509 1.967.763 3.886.763zm36.221 1.479c-2.975 0-5.629-.684-7.963-2.051a14.683 14.683 0 01-5.373-5.628c-1.247-2.384-1.871-4.976-1.871-7.774 0-3.275.832-6.073 2.495-8.394 1.663-2.352 3.789-4.117 6.38-5.293C218.066.588 220.736 0 223.454 0c3.039 0 5.709.715 8.011 2.146 2.303 1.4 4.062 3.26 5.277 5.58a15.393 15.393 0 011.871 7.392c0 2.894-.768 5.549-2.303 7.965-1.535 2.417-3.597 4.324-6.188 5.723-2.558 1.4-5.34 2.099-8.346 2.099zm1.583-1.193c1.79 0 3.389-.508 4.796-1.526 1.44-1.05 2.559-2.56 3.358-4.53.8-2.004 1.2-4.388 1.2-7.154 0-2.926-.448-5.533-1.344-7.822-.895-2.321-2.19-4.133-3.885-5.437-1.695-1.304-3.678-1.955-5.948-1.955-2.91 0-5.149 1.097-6.716 3.29-1.567 2.163-2.351 5.199-2.351 9.11 0 3.084.464 5.85 1.392 8.298.959 2.417 2.254 4.308 3.885 5.675 1.663 1.368 3.534 2.051 5.613 2.051zm57.545.048c.064 0 .096.095.096.286 0 .19-.032.286-.096.286a54.93 54.93 0 01-2.59-.047l-3.55-.048-3.598.048a51.65 51.65 0 01-2.494.047c-.096 0-.144-.095-.144-.286 0-.19.048-.286.144-.286 1.343 0 2.254-.159 2.734-.477.48-.318.72-.986.72-2.003l-.048-.81-1.008-19.507-9.881 23.035c-.064.128-.192.191-.384.191s-.32-.063-.384-.19l-12.136-22.94-.384 17.216c-.032 1.717.304 3.069 1.007 4.054.736.954 1.759 1.431 3.07 1.431.096 0 .144.095.144.286 0 .19-.048.286-.144.286a33.18 33.18 0 01-2.014-.047l-2.639-.048-3.022.048a34.94 34.94 0 01-2.062.047c-.096 0-.144-.095-.144-.286 0-.19.048-.286.144-.286 1.311 0 2.35-.493 3.118-1.479.767-.985 1.167-2.32 1.199-4.006l.432-19.744-.048-.048c-.64-1.176-1.312-2.035-2.015-2.575-.672-.54-1.455-.811-2.351-.811-.096 0-.144-.095-.144-.286 0-.191.048-.286.144-.286l2.255.047c.448.032 1.023.048 1.727.048L249.1.572c.288-.031.656-.047 1.104-.047.415 0 .735.143.959.429.224.286.639.97 1.247 2.05l10.457 19.507 9.115-20.794c.192-.445.383-.747.575-.906.224-.191.512-.286.864-.286.288 0 .607.016.959.047.384.032.816.048 1.295.048l2.831-.048a29.03 29.03 0 011.918-.047c.096 0 .144.095.144.286 0 .19-.048.286-.144.286-1.503 0-2.59.302-3.262.906-.671.604-.975 1.542-.911 2.814l1.151 21.652c.064.986.176 1.701.336 2.146.192.446.512.748.959.907.48.159 1.216.238 2.207.238z" fill="#F9EEE2"/></svg>